<?xml version="1.0" encoding="UTF-8" standalone="no"?>
<!-- Generator: Adobe Illustrator 16.0.0, SVG Export Plug-In . SVG Version: 6.00 Build 0)  -->

<svg
   xmlns:dc="http://purl.org/dc/elements/1.1/"
   xmlns:cc="http://creativecommons.org/ns#"
   xmlns:rdf="http://www.w3.org/1999/02/22-rdf-syntax-ns#"
   xmlns:svg="http://www.w3.org/2000/svg"
   xmlns="http://www.w3.org/2000/svg"
   xmlns:sodipodi="http://sodipodi.sourceforge.net/DTD/sodipodi-0.dtd"
   xmlns:inkscape="http://www.inkscape.org/namespaces/inkscape"
   version="1.1"
   id="Layer_1"
   x="0px"
   y="0px"
   width="100"
   height="100"
   viewBox="0 0 100 100"
   enable-background="new 0 0 100 100"
   xml:space="preserve"
   inkscape:version="0.48.5 r10040"
   sodipodi:docname="floppy13.svg"><metadata
   id="metadata5110"><rdf:RDF><cc:Work
       rdf:about=""><dc:format>image/svg+xml</dc:format><dc:type
         rdf:resource="http://purl.org/dc/dcmitype/StillImage" /></cc:Work></rdf:RDF></metadata><defs
   id="defs5108" /><sodipodi:namedview
   pagecolor="#ffffff"
   bordercolor="#666666"
   borderopacity="1"
   objecttolerance="10"
   gridtolerance="10"
   guidetolerance="10"
   inkscape:pageopacity="0"
   inkscape:pageshadow="2"
   inkscape:window-width="1920"
   inkscape:window-height="1178"
   id="namedview5106"
   showgrid="false"
   fit-margin-top="0"
   fit-margin-left="0"
   fit-margin-right="0"
   fit-margin-bottom="0"
   inkscape:zoom="2.36"
   inkscape:cx="-15.677966"
   inkscape:cy="50.423729"
   inkscape:window-x="-8"
   inkscape:window-y="-8"
   inkscape:window-maximized="1"
   inkscape:current-layer="Layer_1" />
<path
   d="M 89.585748,7.5 H 10.414252 c -1.6086671,0 -2.9142522,1.305585 -2.9142522,2.914253 v 79.171495 c 0,1.608668 1.3055851,2.914252 2.9142522,2.914252 H 89.585748 C 91.194415,92.5 92.5,91.194416 92.5,89.585748 V 10.414253 C 92.5,8.805585 91.194415,7.5 89.585748,7.5 z m -65.81402,4.372836 H 76.228272 V 36.400641 H 23.771728 V 11.872836 z M 78.7797,86.307214 H 21.223214 V 50 H 78.7797 V 86.307214 z M 61.415126,15.515651 h 7.287088 V 33.002623 H 61.415126 V 15.515651 z M 73.496159,58.986097 H 26.50384 v -2.914252 h 46.992319 v 2.914252 z m 0,10.199884 H 26.50384 v -2.914253 h 46.992319 v 2.914253 z m 0,9.835602 H 26.50384 V 76.10733 h 46.992319 v 2.914253 z"
   id="path5104"
   inkscape:connector-curvature="0"
   style="fill:#ffffff;fill-opacity:1" />
<rect
   style="fill:#ffffff;fill-opacity:0;stroke:none"
   id="rect5112"
   width="100"
   height="100"
   x="0"
   y="0" /></svg>